<?xml version="1.0" encoding="UTF-8"?>
<!DOCTYPE svg PUBLIC "-//W3C//DTD SVG 1.1//EN" "http://www.w3.org/Graphics/SVG/1.1/DTD/svg11.dtd">
<!-- Creator: CorelDRAW -->
<svg xmlns="http://www.w3.org/2000/svg" xml:space="preserve" width="100mm" height="31.516mm" version="1.1" style="shape-rendering:geometricPrecision; text-rendering:geometricPrecision; image-rendering:optimizeQuality; fill-rule:evenodd; clip-rule:evenodd"
viewBox="0 0 10000 3151.6"
 xmlns:xlink="http://www.w3.org/1999/xlink"
 xmlns:xodm="http://www.corel.com/coreldraw/odm/2003">
 <defs>
  <style type="text/css">
   <![CDATA[
    .fil0 {fill:#373435}
   ]]>
  </style>
 </defs>
 <g id="Layer_x0020_1">
  <metadata id="CorelCorpID_0Corel-Layer"/>
  <path class="fil0" d="M4225.59 3070.77c78.65,19.19 225.51,17.33 304.96,-0.21l-139.72 -808.52 -25.44 -0.21 -139.8 808.94zm1278.47 -1224.65c-2.02,0.72 -4.01,1.61 -5.94,2.48 -31.83,14.21 -61.48,32.86 -90.47,52.01 -36.92,24.38 -72.72,50.34 -108.33,76.51 -55.98,41.15 -110.95,83.79 -168.75,122.39l328.44 247.59c83.13,-34.82 120.86,-116.59 140.74,-199.78 14,-58.45 4.32,-134.28 -14.27,-190.97 -12.03,-36.62 -40.4,-99.02 -81.42,-110.23zm-516.19 260.9c-77.73,24.73 -157.3,43.69 -237.64,57.73l313 541.07c142.39,-59.97 278.08,-143.93 396.55,-243.07l-31.69 -23.92c-6.1,-2.76 -11.68,-6.86 -15.94,-12.02l-424.28 -319.79zm-1360.66 -7.51c-57.82,-38.6 -112.77,-81.24 -168.77,-122.39 -35.59,-26.17 -71.4,-52.13 -108.31,-76.51 -28.99,-19.15 -58.66,-37.8 -90.48,-52.01 -1.93,-0.87 -3.91,-1.76 -5.94,-2.48 -41.01,11.21 -69.4,73.61 -81.42,110.23 -18.58,56.69 -28.26,132.52 -14.27,190.97 19.89,83.19 57.62,164.96 140.75,199.78l328.44 -247.59zm-329.23 363.24c118.49,99.14 254.18,183.1 396.57,243.07l312.99 -541.07c-80.33,-14.04 -159.9,-33 -237.64,-57.73l-424.27 319.79c-4.28,5.16 -9.84,9.26 -15.95,12.02l-31.7 23.92zm877.95 458.69l117.3 -678.95c5.58,-32.24 33.2,-55.33 65.93,-55.08l35.39 0.27c0.46,0 0.93,0 1.39,0.03l3.52 0.11c31.87,0.92 58.1,23.64 63.52,55.07l117.3 678.68c108.63,-11.9 216.91,-31.62 322.32,-60.48 40.33,-11.04 80.32,-23.43 119.8,-37.21l-405.98 -701.78c-43.46,5.5 -87.07,9.67 -130.74,12.5 -84.08,5.48 -169.51,4.04 -253.42,-2.96 -30.38,-2.54 -60.67,-5.74 -90.9,-9.54l-405.98 701.78c39.48,13.78 79.47,26.17 119.79,37.21 104.94,28.73 212.65,48.41 320.76,60.35zm-1140.28 -2640.67c-35.88,30.7 -60.86,75.61 -66.28,122.64 -4.83,41.91 4.28,80.78 27.22,116.25 48.63,75.15 132.74,101.43 216.9,72.87 64.98,-22.05 110.28,-88.49 118.12,-155.16 6.13,-52.15 -11.77,-99.72 -46.62,-138.48 -62.17,-69.08 -178.14,-79.04 -249.34,-18.12zm2407.69 0c-35.88,30.7 -60.86,75.61 -66.28,122.64 -4.83,41.91 4.28,80.78 27.22,116.25 48.63,75.15 132.74,101.43 216.9,72.87 64.98,-22.05 110.28,-88.49 118.12,-155.16 6.13,-52.15 -11.77,-99.72 -46.63,-138.48 -62.16,-69.08 -178.13,-79.04 -249.33,-18.12zm3060.73 678.44c-49.43,16.99 -103.44,29.13 -153.99,39.87 -49.88,10.6 -100.55,21.34 -149.9,34.25 -28.33,7.41 -53.63,22.08 -75.97,40.84 -25.1,21.08 -34.48,49.48 -34.48,81.75 0,37.27 14.43,67.81 41.66,93.11 30.52,28.37 69.02,38.9 110.11,38.9 48.2,0 94.39,-10.34 137.16,-32.61 37.79,-19.66 70.06,-46.38 91.73,-83.48 29.24,-50.02 33.68,-132.74 33.68,-189.23l0 -23.4zm-2949.51 1543.76c-131.24,115.36 -285.02,212.7 -445.74,281.62l24.89 43.07c6.48,11.17 7.4,24.03 2.48,35.98 -4.75,11.51 -13.82,19.83 -25.4,24.25 -3.16,1.22 -6.24,2.44 -9.54,3.25 -56.2,21.21 -113.43,39.76 -171.39,55.6 -109.38,29.98 -221.67,50.42 -334.39,62.95l9.63 55.64c5.95,34.39 -15.62,67.4 -49.49,75.78 -93.36,23.02 -264.26,25.03 -356.79,-0.49 -33.01,-9.09 -53.58,-41.56 -47.75,-75.29l9.63 -55.82c-0.08,-0.01 -0.21,-0.03 -0.27,-0.05 -112.07,-12.54 -223.72,-32.91 -332.52,-62.72 -57.93,-15.84 -115.2,-34.38 -171.37,-55.6 -1.96,-0.48 -3.89,-1.08 -5.76,-1.78l-3.77 -1.47c-11.6,-4.4 -20.69,-12.74 -25.43,-24.25 -4.91,-11.95 -4,-24.81 2.48,-35.98l24.9 -43.07c-160.74,-68.92 -314.5,-166.24 -445.74,-281.61 -4.34,-1.83 -8.38,-4.43 -11.91,-7.52l-2.83 -2.53c-9.51,-8.35 -14.92,-20.33 -14.37,-33.05 0.57,-12.88 6.83,-23.95 17.04,-31.65l27.23 -20.53c-86.48,-53.22 -131.03,-144.33 -154.11,-240.9 -17.69,-73.95 -7.39,-164.81 16.14,-236.6 24.97,-76.1 74.56,-157.46 159.75,-172.81 21.09,-3.8 42,2.16 61.15,10.68 36.75,16.41 71.04,37.61 104.54,59.72 38.24,25.23 75.33,52.11 112.23,79.23 61.73,45.35 122.13,92.76 186.76,134l26.6 -20.04c12.78,-9.65 29.97,-12.04 45.02,-6.75l1.25 0.43c1.68,0.58 3.32,1.33 5.02,1.9 88.78,29.46 180.26,50.99 272.66,65.47l13.08 -22.53c6.43,-21.57 29.28,-33.67 51.06,-30.55l2.09 0.28c9.98,1.47 20,2.76 30.05,4.02 75.43,9.54 151.15,16.62 227.21,16.62 76.08,0 151.8,-7.08 227.22,-16.62 10.04,-1.26 20.07,-2.55 30.06,-4.02l2.09 -0.28c21.77,-3.12 44.61,8.98 51.04,30.55l13.08 22.53c92.42,-14.48 183.88,-36.01 272.68,-65.47 1.68,-0.57 3.33,-1.32 5.01,-1.9l1.26 -0.43c15.05,-5.29 32.24,-2.9 45.02,6.75l26.6 20.04c64.63,-41.24 125.01,-88.65 186.76,-134 36.9,-27.12 73.99,-54 112.21,-79.23 33.52,-22.11 67.8,-43.31 104.55,-59.72 19.15,-8.52 40.07,-14.48 61.14,-10.68 85.2,15.35 134.79,96.71 159.75,172.81 23.54,71.79 33.85,162.65 16.14,236.6 -23.06,96.57 -67.62,187.68 -154.09,240.9l27.23 20.53c10.2,7.7 16.47,18.77 17.02,31.65 0.84,18.66 -12.37,35.87 -29.09,43.09zm-4302.3 -2053.63c0,35.47 -12.97,65.9 -36.85,91.99 -24.03,26.25 -54.04,40.04 -89.67,40.04 -30.92,0 -64.34,-6.24 -87.56,-28.21 -24.73,-23.39 -46.26,-61.05 -62.13,-90.91 -30.94,-58.11 -71.76,-113.79 -126.56,-151.46 -52.93,-36.37 -114.83,-49.5 -178.29,-49.5 -110.52,0 -200.87,40.76 -269.13,128.18 -80.08,102.55 -100.99,242.72 -100.99,369.27 0,88.72 10.21,184.05 44.92,266.48 26.8,63.62 66.43,119.2 125.27,156.66 57.65,36.69 122.62,51.63 190.54,51.63 71.87,0 140.77,-16.15 199.83,-58.47 59.79,-42.86 98.32,-104.4 123.2,-172.57 10.63,-32.45 25.25,-64.99 46.15,-92.41 22.31,-29.26 57.43,-38.43 92.8,-38.43 36.18,0 67.36,12.74 93.21,38.05 26.17,25.65 38.82,57.39 38.82,93.98 0,50.85 -13.71,101.05 -33.47,147.59 -24.45,57.61 -62.15,109.06 -104.86,154.44 -51.12,54.3 -114.04,94.31 -182.39,123.4 -81.32,34.59 -170.5,47.09 -258.38,47.09 -67.74,0 -136.3,-5.65 -202.38,-20.97 -58.56,-13.58 -114.75,-35.31 -166.37,-66.23 -52.29,-31.35 -98.39,-71.55 -137.8,-118.01 -38.25,-45.11 -69.74,-95.17 -95.28,-148.49 -26.77,-55.87 -46.25,-114.89 -59.05,-175.48 -13.72,-64.98 -19.64,-131.3 -19.64,-197.65 0,-103.08 13.84,-206.88 49.5,-303.95 31.66,-86.17 78.12,-164.63 142.05,-230.78 61.86,-64.01 134.22,-112.8 216.81,-146.06 84.53,-34.06 173.64,-49.95 264.71,-49.95 106.4,0 210.06,19.85 305.31,68.43 80.09,40.84 153.27,95.62 205.62,169.51 39.86,56.3 72.06,122.42 72.06,192.79zm531.54 95.24c24.77,-26.74 51.89,-52.09 81.45,-72.93 32.52,-22.91 68.3,-40.2 106.54,-51.26 40.81,-11.8 83.01,-16.9 125.44,-16.9 63.1,0 124.19,12.57 179.85,42.97 53.61,29.27 94.32,71.79 123.59,125.12 19.75,32.94 32.14,69.2 38.38,107.2 7.24,43.94 9.54,89.26 9.54,133.74l0 496.66c0,43.51 -8.19,90.41 -38.07,123.95 -26.69,30 -61.9,43.05 -101.74,43.05 -103.93,0 -137.86,-73.59 -137.86,-167l0 -437.69c0,-59.75 -6.29,-133.23 -35.73,-186.52 -27.06,-48.95 -79.65,-62.13 -132.24,-62.13 -43.65,0 -83.6,12.47 -119.18,37.75 -36.91,26.23 -62.89,61.24 -79.54,103.15 -19.42,53.73 -20.43,145.74 -20.43,202.67l0 342.77c0,43.19 -8.06,89.37 -36.97,123.17 -26.66,31.16 -62.86,43.83 -103.17,43.83 -103.75,0 -137.53,-73.85 -137.53,-167l0 -1123.55c0,-42.83 7.31,-90.46 35.98,-124.14 26.12,-30.66 61.85,-42.88 101.55,-42.88 40.2,0 76.45,12.34 103.14,43.15 29.14,33.66 37,80.69 37,123.87l0 358.95zm1931.42 -0.43c0,74.04 -10.77,147.24 -36.56,216.82 -23.79,64.22 -58.99,122.04 -106.77,171.17 -47.25,48.62 -103.58,84.91 -166.62,109.79 -69.05,27.26 -142.99,38.24 -217,38.24 -73.58,0 -147.01,-10.93 -215.46,-38.59 -62.98,-25.45 -118.88,-62.38 -166.24,-111.07 -47.49,-48.82 -82.91,-106.27 -106.44,-170.2 -25.53,-69.45 -36.22,-142.66 -36.22,-216.48 0,-74.46 10.59,-148.74 36.56,-218.77 23.65,-63.82 58.15,-121.68 105.78,-170.52 47.23,-48.41 103.75,-84.22 166.66,-108.82 68.77,-26.87 141.7,-38.24 215.36,-38.24 74.12,0 147.89,11.21 217.01,38.58 63.48,25.13 119.92,61.89 167.58,110.74 47.74,48.92 82.69,106.47 106.13,170.57 25.44,69.51 36.23,142.93 36.23,216.78zm1173.64 864.2c0,37.75 -12.86,74.74 -30.25,107.81 -21.96,41.71 -54.46,77.45 -90.45,107.53 -44.56,37.25 -97.96,63.29 -152.77,81.75 -66.22,22.3 -136.46,30.95 -206.17,30.95 -215.01,0 -377.61,-89.5 -467.11,-285.78 -111.12,-243.73 -118.92,-577.66 7.23,-817.22 43.23,-82.1 104.47,-153.47 185.58,-199.84 86.86,-49.66 184.77,-68.32 284.02,-68.32 63.85,0 127.5,8.68 187.85,30.02 51.77,18.31 101.98,43.28 145.01,77.7 35.64,28.51 68.22,62.2 91.38,101.77 18.28,31.22 32.41,66.63 32.41,103.31 0,34.03 -12.82,62.89 -37.72,86.05 -25.47,23.69 -56.07,34.64 -90.75,34.64 -21.54,0 -42.1,-5.23 -59.3,-18.52 -18.88,-14.59 -35.95,-36.18 -49.96,-55.58 -25.93,-39.13 -58.06,-78.92 -96.74,-105.8 -37.02,-25.72 -81.67,-34.25 -126.07,-34.25 -115.42,0 -184.01,73.84 -223.42,175.39 -71.79,185.01 -69.82,417.01 4.9,600.82 23.81,58.6 61,115.23 120.15,142.57 32.2,14.87 66.87,21.46 102.26,21.46 45.42,0 89.47,-9.55 127.96,-34.42 40.65,-26.28 71.82,-64.95 95.33,-106.8 14.19,-25.25 31.44,-51.08 53.16,-70.49 20.78,-18.58 45.92,-27.38 73.77,-27.38 34.5,0 63.42,13.52 85.95,39.6 20.48,23.68 33.75,51.35 33.75,83.03zm1235.54 -864.2c0,74.04 -10.77,147.24 -36.56,216.82 -23.81,64.22 -58.99,122.04 -106.77,171.17 -47.26,48.62 -103.58,84.91 -166.62,109.79 -69.07,27.26 -142.99,38.24 -217.02,38.24 -73.56,0 -146.99,-10.93 -215.46,-38.59 -62.98,-25.45 -118.86,-62.38 -166.22,-111.07 -47.49,-48.82 -82.93,-106.27 -106.44,-170.2 -25.55,-69.45 -36.24,-142.66 -36.24,-216.48 0,-74.46 10.61,-148.74 36.56,-218.77 23.67,-63.82 58.17,-121.68 105.8,-170.52 47.23,-48.41 103.74,-84.22 166.65,-108.82 68.78,-26.87 141.7,-38.24 215.35,-38.24 74.14,0 147.89,11.21 217.03,38.58 63.48,25.13 119.92,61.89 167.58,110.74 47.73,48.92 82.69,106.47 106.13,170.57 25.44,69.51 36.23,142.93 36.23,216.78zm1152.24 441.6l0 -796.23c0,-43.87 7.51,-92.64 36.96,-127.06 26.09,-30.49 60.75,-43.85 100.58,-43.85 40.22,0 76.12,12.72 102.79,43.47 29.78,34.33 37.34,83.48 37.34,127.44l0 1094.06c0,110.15 -41.14,192.6 -161.19,192.6 -24.38,0 -48.6,-3.29 -71.6,-11.58 -22.15,-7.97 -42.26,-20.58 -59.82,-36.19 -19.11,-17.02 -35.75,-36.52 -50.65,-57.28 -15.43,-21.53 -30.72,-43.15 -45.84,-65.06l-510.9 -783.08 0 782.29c0,44.64 -8.37,92.84 -39.43,126.96 -27.26,29.92 -61.98,43.94 -102.33,43.94 -40.69,0 -76.07,-13.57 -103.09,-44.4 -30.22,-34.48 -38.65,-81.99 -38.65,-126.5l0 -1073c0,-35.67 2.87,-77.14 15.92,-110.82 13.21,-31.44 35.12,-56.04 63.61,-74.43 28.88,-18.63 60.85,-28.42 95.27,-28.42 23.43,0 47.65,3.33 69.11,13.18 18.95,8.71 35.89,20.47 50.47,35.37 16.3,16.68 30.41,36.06 43,55.64 14.85,23.11 29.85,46.12 44.37,69.31l524.08 793.64zm1251.63 349.4c-54.06,41.01 -112.86,77.99 -175.53,104.01 -63.66,26.45 -131.98,37.02 -200.66,37.02 -62.38,0 -124.08,-11.55 -179.7,-40.61 -49.75,-26 -90.95,-61.96 -120.07,-110.11 -28.05,-46.44 -42.2,-96.8 -42.2,-151.07 0,-71.17 22.01,-134.33 69.84,-187.49 50.6,-56.23 117.65,-87.77 190.63,-103.69 40.11,-9.63 81.8,-17.37 122.35,-25.64 55.85,-11.39 111.75,-23.16 167.16,-36.53 48.14,-11.63 96.03,-24.21 143.6,-37.95 -2.7,-45.15 -11.27,-101.53 -38.78,-137.44 -29.97,-39.07 -99.18,-44.19 -144.04,-44.19 -44.97,0 -103.56,4.18 -143.77,26.34 -34.26,18.9 -61.04,46.68 -82.1,79.41 -15.6,24.28 -32.63,51.01 -50.91,73.53 -15.87,18.44 -48.09,20.93 -70.52,20.93 -31,0 -58.58,-10.03 -81.81,-30.59 -23.46,-20.75 -35,-47.46 -35,-78.76 0,-51.59 19.6,-97.97 50.19,-138.89 38.39,-51.32 96.56,-85.55 155.03,-109.39 80.53,-32.82 172.89,-42.49 259.22,-42.49 87.52,0 190.5,7.48 272.22,41.22 64.11,26.47 113.85,69.16 143.06,132.49 32.85,71.25 41.37,158.02 41.37,235.64 0,51.64 -0.25,103.28 -0.65,154.94 -0.36,47.18 -1,94.36 -1.3,141.55 -0.33,50.65 9.02,101.1 23.89,149.4 8.11,26.34 24.39,77.14 24.39,104.55 0,32.53 -16.45,58.94 -40.56,79.8 -26.27,22.68 -56.6,35.04 -91.47,35.04 -33.37,0 -61.98,-17.41 -85.36,-39.92 -30,-28.87 -56.12,-65.53 -78.52,-101.11zm786.93 -774.94c37.94,-45.71 82.74,-85.93 135.69,-113.53 59.33,-30.9 124.54,-43.19 191.04,-43.19 66.27,0 129.72,13.87 187.98,45.9 55.1,30.29 96.92,73.69 124.41,130.02 17.86,33.03 29.24,68.41 34.34,105.78 6.33,46.33 7.54,94.87 7.54,141.58l0 482.41c0,43.51 -8.19,90.41 -38.05,123.95 -26.33,29.55 -60.56,43.05 -99.81,43.05 -40.11,0 -74.69,-13.88 -101.43,-44.04 -29.78,-33.58 -38.38,-79.37 -38.38,-122.96l0 -432.19c0,-60.8 -5.86,-136.77 -34.55,-191.56 -26.18,-50.06 -80.86,-62.59 -133.42,-62.59 -44.51,0 -84.65,13.23 -120.73,39.32 -38.15,27.59 -63.89,65.12 -79.82,109.09 -18.39,56.14 -18.6,154.22 -18.6,213.29l0 324.64c0,43.84 -8.33,91.13 -39.16,124.41 -26.96,29.13 -61.43,42.59 -100.96,42.59 -39.46,0 -73.06,-14.38 -99.2,-44.05 -29.68,-33.69 -38.35,-79.31 -38.35,-122.95l0 -749.05c0,-40.22 6.83,-85.61 34.49,-116.8 24.99,-28.18 58.01,-39.84 95.28,-39.84 23.5,0 46.06,5.64 66.37,17.52 21.13,12.32 36.61,30.52 47.74,52.14 13.09,25.39 17.58,54.78 17.58,83.1l0 3.96z"/>
 </g>
</svg>
