<?xml version="1.0" encoding="UTF-8"?>
<!DOCTYPE svg PUBLIC "-//W3C//DTD SVG 1.1//EN" "http://www.w3.org/Graphics/SVG/1.1/DTD/svg11.dtd">
<!-- Creator: CorelDRAW -->
<svg xmlns="http://www.w3.org/2000/svg" xml:space="preserve" width="50mm" height="43.559mm" version="1.1" style="shape-rendering:geometricPrecision; text-rendering:geometricPrecision; image-rendering:optimizeQuality; fill-rule:evenodd; clip-rule:evenodd"
viewBox="0 0 5000 4355.9"
 xmlns:xlink="http://www.w3.org/1999/xlink"
 xmlns:xodm="http://www.corel.com/coreldraw/odm/2003">
 <defs>
  <style type="text/css">
   <![CDATA[
    .fil0 {fill:#373435}
   ]]>
  </style>
 </defs>
 <g id="Layer_x0020_1">
  <metadata id="CorelCorpID_0Corel-Layer"/>
  <path class="fil0" d="M2250.32 4234.75c113.64,27.74 325.83,25.04 440.63,-0.3l-201.89 -1168.22 -36.75 -0.3 -201.99 1168.82zm1847.23 -1769.47c-2.91,1.05 -5.79,2.33 -8.59,3.59 -45.98,20.53 -88.82,47.47 -130.71,75.14 -53.35,35.22 -105.07,72.74 -156.52,110.55 -80.89,59.46 -160.31,121.07 -243.82,176.85l474.54 357.73c120.12,-50.31 174.64,-168.45 203.36,-288.66 20.23,-84.45 6.25,-194.02 -20.62,-275.93 -17.37,-52.92 -58.36,-143.07 -117.64,-159.27zm-745.84 376.98c-112.31,35.72 -227.27,63.12 -343.35,83.4l452.25 781.79c205.74,-86.65 401.79,-207.96 572.97,-351.21l-45.8 -34.56c-8.81,-3.98 -16.87,-9.91 -23.03,-17.37l-613.04 -462.05zm-1965.98 -10.85c-83.54,-55.78 -162.94,-117.39 -243.85,-176.85 -51.42,-37.81 -103.17,-75.33 -156.5,-110.55 -41.88,-27.67 -84.75,-54.61 -130.73,-75.14 -2.8,-1.26 -5.66,-2.54 -8.59,-3.59 -59.25,16.2 -100.27,106.35 -117.64,159.27 -26.84,81.91 -40.83,191.48 -20.62,275.93 28.75,120.21 83.27,238.35 203.38,288.66l474.55 -357.73zm-475.7 524.83c171.2,143.25 367.26,264.56 572.99,351.21l452.24 -781.79c-116.07,-20.28 -231.03,-47.68 -343.36,-83.4l-613.02 462.05c-6.18,7.46 -14.21,13.39 -23.05,17.37l-45.8 34.56zm1268.54 662.75l169.48 -981c8.06,-46.58 47.98,-79.95 95.26,-79.58l51.13 0.39c0.66,0 1.35,0 2.02,0.04l5.08 0.16c46.05,1.33 83.95,34.15 91.77,79.56l169.49 980.62c156.96,-17.19 313.42,-45.69 465.71,-87.39 58.27,-15.95 116.06,-33.85 173.1,-53.76l-586.58 -1013.99c-62.81,7.95 -125.82,13.97 -188.92,18.06 -121.48,7.92 -244.92,5.84 -366.15,-4.28 -43.9,-3.66 -87.66,-8.28 -131.35,-13.78l-586.58 1013.99c57.03,19.91 114.82,37.81 173.07,53.76 151.63,41.52 307.26,69.94 463.47,87.2zm-1647.57 -3617.66c-51.84,44.36 -87.94,109.24 -95.77,177.19 -6.98,60.56 6.18,116.73 39.33,167.98 70.26,108.57 191.79,146.54 313.39,105.28 93.89,-31.86 159.35,-127.85 170.67,-224.18 8.86,-75.35 -17,-144.08 -67.35,-200.09 -89.84,-99.81 -257.4,-114.21 -360.27,-26.18zm3478.82 0c-51.84,44.36 -87.93,109.24 -95.76,177.19 -6.98,60.56 6.18,116.73 39.32,167.98 70.26,108.57 191.8,146.54 313.4,105.28 93.88,-31.86 159.34,-127.85 170.67,-224.18 8.86,-75.35 -17.01,-144.08 -67.38,-200.09 -89.81,-99.81 -257.37,-114.21 -360.25,-26.18zm160.69 3013.02c-189.62,166.69 -411.81,307.33 -644.03,406.92l35.96 62.23c9.36,16.13 10.69,34.72 3.59,51.98 -6.86,16.63 -19.98,28.65 -36.71,35.04 -4.55,1.76 -9.02,3.52 -13.78,4.69 -81.2,30.64 -163.9,57.45 -247.64,80.33 -158.04,43.33 -320.29,72.85 -483.15,90.96l13.91 80.4c8.61,49.69 -22.57,97.39 -71.5,109.5 -134.9,33.25 -381.83,36.16 -515.52,-0.71 -47.69,-13.14 -77.42,-60.06 -69,-108.79l13.91 -80.65c-0.11,-0.03 -0.29,-0.05 -0.39,-0.07 -161.92,-18.13 -323.23,-47.56 -480.45,-90.64 -83.7,-22.88 -166.44,-49.66 -247.6,-80.33 -2.83,-0.69 -5.63,-1.56 -8.33,-2.57l-5.44 -2.12c-16.76,-6.37 -29.89,-18.41 -36.74,-35.04 -7.09,-17.26 -5.79,-35.85 3.57,-51.98l35.98 -62.23c-232.24,-99.59 -454.41,-240.21 -644.03,-406.9 -6.27,-2.65 -12.11,-6.4 -17.21,-10.87l-4.1 -3.66c-13.73,-12.06 -21.56,-29.36 -20.76,-47.74 0.83,-18.61 9.87,-34.61 24.63,-45.73l39.35 -29.66c-124.97,-76.91 -189.33,-208.55 -222.68,-348.08 -25.56,-106.86 -10.69,-238.14 23.33,-341.87 36.07,-109.95 107.73,-227.5 230.82,-249.68 30.46,-5.49 60.67,3.12 88.34,15.43 53.1,23.71 102.65,54.33 151.06,86.29 55.25,36.46 108.83,75.3 162.16,114.48 89.19,65.53 176.46,134.03 269.84,193.6l38.43 -28.95c18.47,-13.94 43.3,-17.39 65.04,-9.75l1.81 0.62c2.43,0.85 4.81,1.92 7.26,2.75 128.28,42.57 260.46,73.67 393.96,94.59l18.9 -32.55c9.3,-31.17 42.3,-48.66 73.77,-44.15l3.02 0.42c14.42,2.12 28.91,3.98 43.42,5.81 108.99,13.78 218.39,24.01 328.3,24.01 109.92,0 219.33,-10.23 328.29,-24.01 14.51,-1.83 29,-3.69 43.44,-5.81l3.02 -0.42c31.45,-4.51 64.46,12.98 73.75,44.15l18.9 32.55c133.53,-20.92 265.68,-52.02 393.99,-94.59 2.42,-0.83 4.8,-1.9 7.23,-2.75l1.83 -0.62c21.74,-7.64 46.58,-4.19 65.05,9.75l38.43 28.95c93.38,-59.57 180.62,-128.07 269.84,-193.6 53.33,-39.18 106.91,-78.02 162.13,-114.48 48.43,-31.96 97.96,-62.58 151.06,-86.29 27.67,-12.31 57.91,-20.92 88.35,-15.43 123.11,22.18 194.74,139.73 230.82,249.68 34.01,103.73 48.91,235.01 23.32,341.87 -33.33,139.53 -97.71,271.17 -222.65,348.08l39.34 29.66c14.74,11.12 23.81,27.12 24.61,45.73 1.21,26.96 -17.88,51.81 -42.05,62.25zm-2657.62 -2632.47c0,106.98 -15.56,212.74 -52.82,313.28 -34.38,92.79 -85.24,176.33 -154.27,247.33 -68.27,70.24 -149.66,122.67 -240.75,158.63 -99.77,39.39 -206.6,55.25 -313.53,55.25 -106.32,0 -212.42,-15.79 -311.32,-55.75 -91,-36.79 -171.77,-90.14 -240.2,-160.49 -68.62,-70.54 -119.8,-153.55 -153.78,-245.93 -36.9,-100.34 -52.35,-206.12 -52.35,-312.78 0,-107.59 15.31,-214.91 52.83,-316.1 34.17,-92.21 84.02,-175.82 152.84,-246.38 68.25,-69.94 149.91,-121.69 240.8,-157.24 99.38,-38.81 204.75,-55.25 311.18,-55.25 107.09,0 213.67,16.21 313.55,55.76 91.71,36.3 173.26,89.42 242.13,160 68.98,70.68 119.47,153.83 153.35,246.45 36.75,100.44 52.34,206.52 52.34,313.22zm1695.78 1248.67c0,54.54 -18.59,107.98 -43.72,155.77 -31.72,60.27 -78.69,111.9 -130.69,155.36 -64.38,53.84 -141.53,91.46 -220.72,118.13 -95.69,32.22 -197.18,44.72 -297.91,44.72 -310.65,0 -545.59,-129.32 -674.9,-412.91 -160.56,-352.17 -171.84,-834.66 10.44,-1180.79 62.46,-118.63 150.94,-221.76 268.15,-288.75 125.49,-71.75 266.96,-98.71 410.37,-98.71 92.26,0 184.22,12.54 271.42,43.37 74.8,26.46 147.35,62.53 209.51,112.26 51.5,41.2 98.58,89.88 132.04,147.05 26.41,45.11 46.83,96.27 46.83,149.27 0,49.17 -18.52,90.87 -54.5,124.33 -36.8,34.24 -81.02,50.05 -131.12,50.05 -31.13,0 -60.83,-7.55 -85.69,-26.75 -27.28,-21.08 -51.93,-52.28 -72.19,-80.31 -37.46,-56.54 -83.88,-114.03 -139.77,-152.87 -53.49,-37.17 -118.01,-49.48 -182.16,-49.48 -166.76,0 -265.86,106.68 -322.81,253.41 -103.72,267.32 -100.88,602.53 7.08,868.12 34.4,84.66 88.13,166.48 173.6,205.99 46.53,21.49 96.63,31.01 147.76,31.01 65.62,0 129.27,-13.8 184.88,-49.73 58.73,-37.97 103.77,-93.84 137.74,-154.31 20.51,-36.48 45.43,-73.81 76.81,-101.85 30.03,-26.85 66.35,-39.57 106.59,-39.57 49.85,0 91.64,19.54 124.18,57.22 29.6,34.21 48.78,74.2 48.78,119.97zm1785.19 -1248.67c0,106.98 -15.56,212.74 -52.82,313.28 -34.4,92.79 -85.23,176.33 -154.26,247.33 -68.3,70.24 -149.66,122.67 -240.75,158.63 -99.79,39.39 -206.61,55.25 -313.56,55.25 -106.29,0 -212.4,-15.79 -311.32,-55.75 -91,-36.79 -171.74,-90.14 -240.18,-160.49 -68.61,-70.54 -119.81,-153.55 -153.78,-245.93 -36.92,-100.34 -52.36,-206.12 -52.36,-312.78 0,-107.59 15.33,-214.91 52.82,-316.1 34.19,-92.21 84.04,-175.82 152.86,-246.38 68.25,-69.94 149.89,-121.69 240.8,-157.24 99.38,-38.81 204.73,-55.25 311.16,-55.25 107.11,0 213.68,16.21 313.58,55.76 91.71,36.3 173.26,89.42 242.13,160 68.96,70.68 119.47,153.83 153.34,246.45 36.76,100.44 52.34,206.52 52.34,313.22z"/>
 </g>
</svg>
